<svg width="86" height="86" viewBox="0 0 86 86" fill="none" xmlns="http://www.w3.org/2000/svg">
<path d="M63.5851 59.7377L7.57826 84.1074C3.92746 85.5604 0.299337 81.9635 1.72052 78.3004L26.1951 21.4121" fill="#FFB636"/>
<path d="M1.72043 78.3004L3.66551 73.7794C3.8323 73.5251 3.99859 73.2704 4.16555 73.0163C13.84 58.278 23.6563 43.6298 33.8078 29.2154L45.1902 40.8825C36.602 46.7786 8.71582 75.5965 2.87471 83.2404C1.60319 82.0708 0.985231 80.1954 1.72043 78.3004V78.3004Z" fill="#FFD469"/>
<path d="M51.1266 34.3385C61.5161 44.728 67.1987 55.8902 63.819 59.2701C60.4393 62.6498 49.2771 56.9672 38.8874 46.5777C28.4977 36.1881 22.8153 25.0259 26.195 21.6461C29.5747 18.2662 40.7369 23.9488 51.1266 34.3385V34.3385Z" fill="#A06C33"/>
<path d="M26.136 55.0219C26.136 56.0318 25.3173 56.8503 24.3077 56.8503C23.298 56.8503 22.4793 56.0318 22.4793 55.0219C22.4793 54.0121 23.2978 53.1936 24.3077 53.1936C25.3175 53.1936 26.136 54.0121 26.136 55.0219Z" fill="#F7F9AA"/>
<path d="M84.318 35.8042C84.318 37.2535 83.1432 38.4283 81.694 38.4283C80.2447 38.4283 79.07 37.2535 79.07 35.8042C79.07 34.355 80.2447 33.1802 81.694 33.1802C83.1432 33.1802 84.318 34.355 84.318 35.8042V35.8042ZM66.795 70.7454C65.3457 70.7454 64.171 71.9202 64.171 73.3694C64.171 74.8187 65.3457 75.9935 66.795 75.9935C68.2442 75.9935 69.419 74.8187 69.419 73.3694C69.419 71.9202 68.244 70.7454 66.795 70.7454Z" fill="#FFB636"/>
<path d="M59.7883 13.3574C59.5632 14.88 58.5794 16.225 57.089 17.0473C56.0601 17.6151 54.85 17.9102 53.5941 17.9102C53.194 17.91 52.7945 17.8805 52.3987 17.8218C51.5105 17.6905 50.6214 17.8245 49.9598 18.1895C49.6631 18.3531 49.1535 18.7111 49.0707 19.2709C48.9881 19.8308 49.3724 20.3209 49.6087 20.5633C50.1224 21.0898 50.9063 21.4671 51.7669 21.608C51.7906 21.6105 51.8141 21.6114 51.8378 21.6149C55.4691 22.1517 58.0629 25.028 57.6195 28.0268C57.3944 29.5496 56.4106 30.8945 54.9201 31.7169C53.8911 32.2846 52.6812 32.5797 51.4253 32.5797C51.0252 32.5796 50.6256 32.55 50.2299 32.4914C49.3418 32.3599 48.4524 32.4939 47.7908 32.8591C47.4942 33.0227 46.9845 33.3806 46.9017 33.9405C46.769 34.8389 47.8723 36.0251 49.6682 36.2905C50.6452 36.435 51.3203 37.3442 51.1759 38.3214C51.0445 39.21 50.2809 39.8486 49.4088 39.8486C49.3217 39.8486 49.2336 39.8422 49.145 39.8291C45.5136 39.2923 42.92 36.4158 43.3633 33.4172C43.5884 31.8944 44.5722 30.5495 46.0627 29.7271C47.4157 28.9807 49.0815 28.7055 50.7531 28.9526C51.6413 29.0838 52.5302 28.9499 53.192 28.5849C53.4886 28.4213 53.9982 28.0634 54.081 27.5036C54.2116 26.6197 53.1443 25.4592 51.3998 25.1691C51.3712 25.1663 51.3425 25.1639 51.3138 25.1597C49.6423 24.9125 48.1272 24.1674 47.0482 23.0613C45.8595 21.8428 45.3069 20.2707 45.5321 18.7477C45.7572 17.2251 46.741 15.8801 48.2314 15.0578C49.5844 14.3113 51.2501 14.0362 52.9217 14.2832C53.8096 14.4143 54.699 14.2806 55.3606 13.9156C55.6573 13.752 56.1669 13.394 56.2497 12.8342C56.3323 12.2743 55.948 11.7842 55.7117 11.5418C55.1839 11.001 54.3718 10.6153 53.4832 10.4841C52.5062 10.3397 51.8311 9.43046 51.9756 8.45322C52.1198 7.47598 53.0294 6.80175 54.0065 6.94536C55.6779 7.19261 57.193 7.93772 58.272 9.0438C59.4609 10.2624 60.0135 11.8346 59.7883 13.3574V13.3574Z" fill="#BEA4FF"/>
<path d="M13.7281 26.8228C13.7281 28.465 12.3968 29.7963 10.7546 29.7963C9.11233 29.7963 7.78101 28.465 7.78101 26.8228C7.78101 25.1806 9.11233 23.8492 10.7546 23.8492C12.3968 23.8492 13.7281 25.1804 13.7281 26.8228ZM66.881 23.3873C64.9836 23.3873 63.4457 24.9254 63.4457 26.8226C63.4457 28.7198 64.9838 30.2579 66.881 30.2579C68.7782 30.2579 70.3163 28.7198 70.3163 26.8226C70.3163 24.9254 68.7784 23.3873 66.881 23.3873ZM36.202 66.4987C34.3046 66.4987 32.7667 68.0368 32.7667 69.934C32.7667 71.8312 34.3048 73.3693 36.202 73.3693C38.0994 73.3693 39.6373 71.8312 39.6373 69.934C39.6373 68.0368 38.0994 66.4987 36.202 66.4987ZM81.7724 50.7691C82.2919 49.7631 81.8976 48.5264 80.8916 48.0068C80.4905 47.7999 80.0118 47.5251 79.4575 47.2071C74.5875 44.4133 64.4547 38.6001 52.5233 48.2333C51.6423 48.9444 51.5049 50.2353 52.2161 51.1161C52.9271 51.9971 54.2178 52.1348 55.099 51.4233C64.847 43.553 72.7159 48.0665 77.4172 50.7635C77.9888 51.0914 78.5286 51.4012 79.01 51.6498C79.2492 51.7733 79.5104 51.8486 79.7787 51.8712C80.047 51.8938 80.3171 51.8634 80.5736 51.7816C80.8301 51.6998 81.068 51.5683 81.2737 51.3946C81.4794 51.2208 81.6489 51.0083 81.7724 50.7691V50.7691Z" fill="#FF6E83"/>
<path d="M73.0386 10.5444C73.0386 11.5543 72.2199 12.3728 71.2102 12.3728C70.2004 12.3728 69.3819 11.5543 69.3819 10.5444C69.3819 9.53461 70.2004 8.7161 71.2102 8.7161C72.2201 8.71593 73.0386 9.53461 73.0386 10.5444ZM7.78104 1.99786C6.77121 1.99786 5.9527 2.81637 5.9527 3.8262C5.9527 4.83602 6.77121 5.65454 7.78104 5.65454C8.79087 5.65454 9.60955 4.83602 9.60955 3.8262C9.60955 2.81637 8.79087 1.99786 7.78104 1.99786ZM36.4501 25.859C36.6569 25.4535 36.9119 24.9918 37.1818 24.503C38.5514 22.0219 40.4269 18.6242 40.5398 14.6669C40.6754 9.91271 38.1993 5.59625 33.1808 1.83745C32.3095 1.18489 31.0746 1.36243 30.4226 2.23335C29.7702 3.10443 29.9474 4.33934 30.8185 4.99156C34.8077 7.97939 36.699 11.1075 36.6008 14.5545C36.5151 17.5565 34.972 20.3521 33.7319 22.5984C33.4462 23.1162 33.1761 23.6052 32.9402 24.0676C32.4456 25.0369 32.8304 26.2236 33.7996 26.7183C34.0763 26.8601 34.3827 26.9341 34.6937 26.9342C35.0571 26.9344 35.4136 26.8341 35.7235 26.6443C36.0335 26.4546 36.285 26.1828 36.4501 25.859V25.859Z" fill="#59CAFC"/>
</svg>
